<?xml version="1.0" encoding="UTF-8"?>
<svg width="12px" height="12px" viewBox="0 0 12 12" version="1.1" xmlns="http://www.w3.org/2000/svg" xmlns:xlink="http://www.w3.org/1999/xlink">
    <!-- Generator: Sketch 49.1 (51147) - http://www.bohemiancoding.com/sketch -->
    <title>Combined Shape</title>
    <desc>Created with Sketch.</desc>
    <defs></defs>
    <g id="Welcome" stroke="none" stroke-width="1" fill="none" fill-rule="evenodd">
        <g id="Mobile__menu" transform="translate(-292.000000, -18.000000)" fill="#666666">
            <g id="close" transform="translate(292.000000, 18.000000)">
                <path d="M7.41421356,6 L10.944907,2.46930658 C11.3386924,2.07552113 11.3402718,1.44077682 10.9497475,1.05025253 C10.5565005,0.657005576 9.92389104,0.661895397 9.53069342,1.05509301 L6,4.58578644 L2.46930658,1.05509301 C2.07552113,0.661307568 1.44077682,0.65972824 1.05025253,1.05025253 C0.657005576,1.44349949 0.661895397,2.07610896 1.05509301,2.46930658 L4.58578644,6 L1.05509301,9.53069342 C0.661307568,9.92447887 0.65972824,10.5592232 1.05025253,10.9497475 C1.44349949,11.3429944 2.07610896,11.3381046 2.46930658,10.944907 L6,7.41421356 L9.53069342,10.944907 C9.92447887,11.3386924 10.5592232,11.3402718 10.9497475,10.9497475 C11.3429944,10.5565005 11.3381046,9.92389104 10.944907,9.53069342 L7.41421356,6 L7.41421356,6 Z" id="Combined-Shape"></path>
            </g>
        </g>
    </g>
</svg>