<?xml version="1.0" encoding="UTF-8"?>
<svg width="40px" height="16px" viewBox="0 0 40 16" version="1.1" xmlns="http://www.w3.org/2000/svg" xmlns:xlink="http://www.w3.org/1999/xlink">
    <!-- Generator: Sketch 48.2 (47327) - http://www.bohemiancoding.com/sketch -->
    <title>itpark74-logo</title>
    <desc>Created with Sketch.</desc>
    <defs></defs>
    <g id="Table__menu--onScroll" stroke="none" stroke-width="1" fill="none" fill-rule="evenodd" transform="translate(-60.000000, -15.000000)">
        <g id="Group">
            <g id="nav">
                <g id="itpark74-logo" transform="translate(60.000000, 15.000000)">
                    <path d="M0.0489203926,3.73459329 L3.78390403,3.73459329 L3.78390403,0.428327517 L0.0489203926,0.428327517 L0.0489203926,3.73459329 Z M0.00471101418,15.9883812 L3.8280916,15.9883812 L3.8280916,5.28944966 L0.00471101418,5.28944966 L0.00471101418,15.9883812 Z M10.1267394,15.9883812 L13.9943511,15.9883812 L13.9943511,3.69267114 L18.7901636,3.69267114 L18.7901636,0.428327517 L5.33094875,0.428327517 L5.33094875,3.69267114 L10.1267394,3.69267114 L10.1267394,15.9883812 Z" id="Fill-1" fill="#00C2FF"></path>
                    <polyline id="Fill-2" fill="#D70000" points="39.9983642 0.00536912752 25.7635333 0.00536912752 22.3050818 5.09457181 26.0053653 5.09457181 24.5521483 7.39700403 35.3330643 7.39700403 39.9983642 0.00536912752"></polyline>
                    <path d="M28.2254744,6.21113557 L29.5381461,6.21113557 L31.7018539,1.99961342 L31.7018539,1.1331651 L28.0018975,1.1331651 L28.0018975,2.19848591 L30.0357906,2.19848591 C30.1211559,2.19848591 30.1884842,2.19612349 30.2377535,2.19255839 C30.2858233,2.18901477 30.3194766,2.18547114 30.3387132,2.18308725 C30.3591494,2.17954362 30.3687677,2.17718121 30.3675682,2.17718121 L30.3675682,2.19137718 C30.3663686,2.19019597 30.351952,2.20439195 30.3218975,2.23398658 C30.291843,2.2624 30.2521701,2.31093691 30.2016794,2.37839463 C30.1523882,2.44587383 30.0970992,2.53702013 30.0357906,2.65301477 L28.2254744,6.21113557 Z M30.8037732,4.98248591 L33.0900763,4.98248591 L33.0900763,6.21113557 L34.3378408,6.21113557 L34.3378408,4.98248591 L34.9508833,4.98248591 L34.9508833,3.95268725 L34.3378408,3.95268725 L34.3378408,1.1331651 L32.794373,1.1331651 L30.8037732,4.2296698 L30.8037732,4.98248591 Z M32.0875682,3.95268725 L32.0875682,3.93849128 L32.8664995,2.7737557 C32.9025736,2.71929128 32.936205,2.66248591 32.9674809,2.60211544 C32.9975354,2.54174497 33.0239695,2.48491812 33.0468048,2.43049664 C33.0696401,2.37721342 33.0876772,2.33342282 33.0996947,2.30028456 C33.1129335,2.26594362 33.1189313,2.24938523 33.1189313,2.24820403 L33.1333697,2.24820403 C33.1333697,2.24938523 33.1297492,2.27897987 33.12253,2.33342282 C33.1153108,2.38906846 33.1081134,2.4600698 33.100916,2.54528859 C33.0948964,2.63171007 33.0912759,2.72167517 33.0900763,2.8163651 L33.0900763,3.95268725 L32.0875682,3.95268725 Z" id="Fill-3" fill="#FFFFFF"></path>
                    <polyline id="Fill-4" fill="#00C2FF" points="23.2112977 6.35835705 18.5669575 6.35835705 16.9280916 8.76999732 21.6891821 8.76999732 23.2112977 6.35835705"></polyline>
                </g>
            </g>
        </g>
    </g>
</svg>