<?xml version="1.0" encoding="UTF-8"?>
<svg width="100px" height="16px" viewBox="0 0 100 16" version="1.1" xmlns="http://www.w3.org/2000/svg" xmlns:xlink="http://www.w3.org/1999/xlink">
    <!-- Generator: Sketch 49.1 (51147) - http://www.bohemiancoding.com/sketch -->
    <title>itpark74-logo</title>
    <desc>Created with Sketch.</desc>
    <defs></defs>
    <g id="Welcome" stroke="none" stroke-width="1" fill="none" fill-rule="evenodd">
        <g id="Mobile__menu" transform="translate(-10.000000, -15.000000)">
            <g id="itpark74-logo" transform="translate(10.000000, 15.000000)">
                <path d="M0.0489203926,3.73459329 L3.78390403,3.73459329 L3.78390403,0.428327517 L0.0489203926,0.428327517 L0.0489203926,3.73459329 Z M0.00471101418,15.9883812 L3.8280916,15.9883812 L3.8280916,5.28944966 L0.00471101418,5.28944966 L0.00471101418,15.9883812 Z M10.1267394,15.9883812 L13.9943511,15.9883812 L13.9943511,3.69267114 L18.7901636,3.69267114 L18.7901636,0.428327517 L5.33094875,0.428327517 L5.33094875,3.69267114 L10.1267394,3.69267114 L10.1267394,15.9883812 Z M27.453566,15.9883812 L28.4038822,15.9883812 L28.4038822,9.67731544 L32.5366848,9.67731544 C33.2144384,9.67368591 33.8406107,9.57212349 34.4115376,9.3653906 C34.9824646,9.15863624 35.4797383,8.86122953 35.9033152,8.47312752 C36.3269138,8.08139597 36.6547437,7.6135302 36.8868048,7.06220671 C37.12253,6.50725369 37.2403926,5.88705503 37.2440785,5.19426577 C37.2403926,4.50149799 37.12253,3.88127785 36.8868048,3.33358389 C36.6547437,2.78588993 36.3269138,2.32165369 35.9033152,1.93718121 C35.4797383,1.55268725 34.9824646,1.26251812 34.4115376,1.05941477 C33.8406107,0.856311409 33.2144384,0.754748993 32.5366848,0.754748993 L27.453566,0.754748993 L27.453566,15.9883812 Z M28.4038822,8.80680805 L28.4038822,1.6252349 L32.4924755,1.6252349 C33.2475682,1.6252349 33.9069138,1.76670067 34.4704689,2.04235168 C35.0303599,2.31802416 35.4649945,2.72062282 35.7781025,3.25379866 C36.0875027,3.78334497 36.2458888,4.42895034 36.2495747,5.19426577 C36.2458888,5.95955973 36.0875027,6.60883758 35.7781025,7.14562148 C35.4649945,7.68242685 35.0303599,8.09589262 34.4704689,8.37882416 C33.9069138,8.66173423 33.2475682,8.80317852 32.4924755,8.80680805 L28.4038822,8.80680805 Z M49.3993893,15.9883812 L50.4160087,15.9883812 L44.6256707,0.754748993 L43.6090513,0.754748993 L37.8187132,15.9883812 L38.8353326,15.9883812 L40.8243621,10.7219114 L47.3882225,10.7219114 L49.3993893,15.9883812 Z M44.1394547,1.84287785 C44.1394547,1.84650738 44.1578844,1.91179597 44.1947219,2.03509262 C44.2315376,2.16206174 44.2794329,2.31802416 44.3346783,2.51023893 C44.3936314,2.70247517 44.4562268,2.90197047 44.52253,3.10870336 C44.5888332,3.31545772 44.6514504,3.50406443 44.7140676,3.67089396 L47.0567285,9.85140403 L41.1558779,9.85140403 L43.5206543,3.67089396 C43.5832497,3.50406443 43.6458888,3.31545772 43.7121701,3.10870336 C43.7784733,2.90197047 43.8411123,2.70247517 43.9000436,2.51023893 C43.955289,2.31802416 44.0031625,2.16206174 44.04,2.03509262 C44.0768375,1.91179597 44.0952672,1.84650738 44.0952672,1.84287785 L44.1394547,1.84287785 Z M53.2006761,15.9883812 L54.1509924,15.9883812 L54.1509924,9.24205101 L58.5931952,9.24205101 L62.2618757,15.9883812 L63.3890076,15.9883812 L59.9192148,9.65553826 C59.816096,9.47056107 59.7350491,9.33274631 59.6687459,9.24570201 C59.6024427,9.15500671 59.5692912,9.1114953 59.565627,9.1114953 L59.565627,9.06796242 C60.1733697,8.93377718 60.7111668,8.67262282 61.1752672,8.28815034 C61.6357034,7.90367785 62.000349,7.42127248 62.2618757,6.83732617 C62.5233806,6.25337987 62.6560087,5.59686443 62.6596728,4.8678443 C62.6560087,4.28750604 62.56759,3.75793826 62.3907961,3.28644295 C62.2102944,2.81492617 61.9635333,2.40143893 61.6430752,2.05324027 C61.3225954,1.70504161 60.946892,1.42213154 60.5159433,1.21176913 C60.3133479,1.11020671 60.0886587,1.02679195 59.8381897,0.957873826 C59.5877208,0.888955705 59.2930207,0.838185235 58.9541549,0.805519463 C58.615289,0.772875168 58.206434,0.754748993 57.7312759,0.754748993 L53.2006761,0.754748993 L53.2006761,15.9883812 Z M54.1509924,8.3715651 L54.1509924,1.6252349 L57.6870665,1.6252349 C58.0959215,1.6252349 58.4348092,1.63612349 58.7,1.6615302 C58.9688768,1.68328591 59.1899019,1.71953826 59.3704035,1.76307114 C59.5508833,1.81023356 59.7092694,1.86463356 59.8529117,1.92992215 C60.232301,2.09677315 60.552759,2.32526174 60.8253435,2.61543087 C61.0942203,2.90197047 61.3004798,3.23565101 61.4478299,3.61649396 C61.591494,3.99733691 61.665169,4.41445369 61.665169,4.8678443 C61.6614831,5.56061208 61.5251908,6.16994362 61.2562923,6.6958604 C60.9911014,7.21816913 60.6080044,7.62802685 60.1144384,7.92180403 C59.6208506,8.21560268 59.0315158,8.36793557 58.3500763,8.3715651 L54.1509924,8.3715651 Z M66.9250818,15.9883812 L67.875398,15.9883812 L67.875398,8.41507651 L70.7484624,8.41507651 L75.4779935,15.9883812 L76.6272192,15.9883812 L71.5661723,7.97985503 L71.5661723,7.93632215 L76.3177972,0.754748993 L75.1685714,0.754748993 L70.7484624,7.54461208 L67.875398,7.54461208 L67.875398,0.754748993 L66.9250818,0.754748993 L66.9250818,15.9883812 Z" id="Fill-1" fill="#00C2FF"></path>
                <polyline id="Fill-2" fill="#D70000" points="99.9983642 0.00536912752 85.7635333 0.00536912752 82.3050818 5.09457181 86.0053653 5.09457181 84.5521483 7.39700403 95.3330643 7.39700403 99.9983642 0.00536912752"></polyline>
                <path d="M88.2254744,6.21113557 L89.5381461,6.21113557 L91.7018539,1.99961342 L91.7018539,1.1331651 L88.0018975,1.1331651 L88.0018975,2.19848591 L90.0357906,2.19848591 C90.1211559,2.19848591 90.1884842,2.19612349 90.2377535,2.19255839 C90.2858233,2.18901477 90.3194766,2.18547114 90.3387132,2.18308725 C90.3591494,2.17954362 90.3687677,2.17718121 90.3675682,2.17718121 L90.3675682,2.19137718 C90.3663686,2.19019597 90.351952,2.20439195 90.3218975,2.23398658 C90.291843,2.2624 90.2521701,2.31093691 90.2016794,2.37839463 C90.1523882,2.44587383 90.0970992,2.53702013 90.0357906,2.65301477 L88.2254744,6.21113557 Z M90.8037732,4.98248591 L93.0900763,4.98248591 L93.0900763,6.21113557 L94.3378408,6.21113557 L94.3378408,4.98248591 L94.9508833,4.98248591 L94.9508833,3.95268725 L94.3378408,3.95268725 L94.3378408,1.1331651 L92.794373,1.1331651 L90.8037732,4.2296698 L90.8037732,4.98248591 Z M92.0875682,3.95268725 L92.0875682,3.93849128 L92.8664995,2.7737557 C92.9025736,2.71929128 92.936205,2.66248591 92.9674809,2.60211544 C92.9975354,2.54174497 93.0239695,2.48491812 93.0468048,2.43049664 C93.0696401,2.37721342 93.0876772,2.33342282 93.0996947,2.30028456 C93.1129335,2.26594362 93.1189313,2.24938523 93.1189313,2.24820403 L93.1333697,2.24820403 C93.1333697,2.24938523 93.1297492,2.27897987 93.12253,2.33342282 C93.1153108,2.38906846 93.1081134,2.4600698 93.100916,2.54528859 C93.0948964,2.63171007 93.0912759,2.72167517 93.0900763,2.8163651 L93.0900763,3.95268725 L92.0875682,3.95268725 Z" id="Fill-3" fill="#FFFFFF"></path>
                <polyline id="Fill-4" fill="#00C2FF" points="83.2112977 6.35835705 78.5669575 6.35835705 76.9280916 8.76999732 81.6891821 8.76999732 83.2112977 6.35835705"></polyline>
            </g>
        </g>
    </g>
</svg>