<?xml version="1.0" encoding="UTF-8"?>
<svg width="150px" height="24px" viewBox="0 0 150 24" version="1.1" xmlns="http://www.w3.org/2000/svg" xmlns:xlink="http://www.w3.org/1999/xlink">
    <!-- Generator: Sketch 48.2 (47327) - http://www.bohemiancoding.com/sketch -->
    <title>itpark74-logo</title>
    <desc>Created with Sketch.</desc>
    <defs></defs>
    <g id="Desktop-Portrait" stroke="none" stroke-width="1" fill="none" fill-rule="evenodd" transform="translate(-350.000000, -20.000000)">
        <g id="header">
            <g id="nav">
                <g id="itpark74-logo" transform="translate(350.000000, 20.000000)">
                    <path d="M0.0733805889,5.60188993 L5.67585605,5.60188993 L5.67585605,0.642491275 L0.0733805889,0.642491275 L0.0733805889,5.60188993 Z M0.00706652126,23.9825718 L5.7421374,23.9825718 L5.7421374,7.9341745 L0.00706652126,7.9341745 L0.00706652126,23.9825718 Z M15.1901091,23.9825718 L20.9915267,23.9825718 L20.9915267,5.53900671 L28.1852454,5.53900671 L28.1852454,0.642491275 L7.99642312,0.642491275 L7.99642312,5.53900671 L15.1901091,5.53900671 L15.1901091,23.9825718 Z M41.180349,23.9825718 L42.6058233,23.9825718 L42.6058233,14.5159732 L48.8050273,14.5159732 C49.8216576,14.5105289 50.760916,14.3581852 51.6173064,14.0480859 C52.4736968,13.7379544 53.2196074,13.2918443 53.8549727,12.7096913 C54.4903708,12.122094 54.9821156,11.4202953 55.3302072,10.5933101 C55.683795,9.76088054 55.8605889,8.83058255 55.8661178,7.79139866 C55.8605889,6.75224698 55.683795,5.82191678 55.3302072,5.00037584 C54.9821156,4.1788349 54.4903708,3.48248054 53.8549727,2.90577181 C53.2196074,2.32903087 52.4736968,1.89377718 51.6173064,1.58912215 C50.760916,1.28446711 49.8216576,1.13212349 48.8050273,1.13212349 L41.180349,1.13212349 L41.180349,23.9825718 Z M42.6058233,13.2102121 L42.6058233,2.43785235 L48.7387132,2.43785235 C49.8713522,2.43785235 50.8603708,2.65005101 51.7057034,3.06352752 C52.5455398,3.47703624 53.1974918,4.08093423 53.6671538,4.88069799 C54.1312541,5.67501745 54.3688332,6.6434255 54.3743621,7.79139866 C54.3688332,8.9393396 54.1312541,9.91325638 53.6671538,10.7184322 C53.1974918,11.5236403 52.5455398,12.1438389 51.7057034,12.5682362 C50.8603708,12.9926013 49.8713522,13.2047678 48.7387132,13.2102121 L42.6058233,13.2102121 Z M74.099084,23.9825718 L75.6240131,23.9825718 L66.938506,1.13212349 L65.4135769,1.13212349 L56.7280698,23.9825718 L58.2529989,23.9825718 L61.2365431,16.0828671 L71.0823337,16.0828671 L74.099084,23.9825718 Z M66.2091821,2.76431678 C66.2091821,2.76976107 66.2368266,2.86769396 66.2920829,3.05263893 C66.3473064,3.24309262 66.4191494,3.47703624 66.5020174,3.76535839 C66.5904471,4.05371275 66.6843402,4.3529557 66.783795,4.66305503 C66.8832497,4.97318658 66.9771756,5.25609664 67.0711014,5.50634094 L70.5850927,14.777106 L61.7338168,14.777106 L65.2809815,5.50634094 C65.3748746,5.25609664 65.4688332,4.97318658 65.5682552,4.66305503 C65.6677099,4.3529557 65.7616685,4.05371275 65.8500654,3.76535839 C65.9329335,3.47703624 66.0047437,3.24309262 66.06,3.05263893 C66.1152563,2.86769396 66.1429008,2.76976107 66.1429008,2.76431678 L66.2091821,2.76431678 Z M79.8010142,23.9825718 L81.2264885,23.9825718 L81.2264885,13.8630765 L87.8897928,13.8630765 L93.3928135,23.9825718 L95.0835115,23.9825718 L89.8788222,14.4833074 C89.7241439,14.2058416 89.6025736,13.9991195 89.5031189,13.868553 C89.4036641,13.7325101 89.3539368,13.667243 89.3484406,13.667243 L89.3484406,13.6019436 C90.2600545,13.4006658 91.0667503,13.0089342 91.7629008,12.4322255 C92.4535551,11.8555168 93.0005234,11.1319087 93.3928135,10.2559893 C93.7850709,9.3800698 93.9840131,8.39529664 93.9895093,7.30176644 C93.9840131,6.43125906 93.851385,5.63690738 93.5861941,4.92966443 C93.3154417,4.22238926 92.9452999,3.60215839 92.4646129,3.0798604 C91.9838931,2.55756242 91.4203381,2.13319732 90.7739149,1.81765369 C90.4700218,1.66531007 90.132988,1.54018792 89.7572846,1.43681074 C89.3815812,1.33343356 88.9395311,1.25727785 88.4312323,1.20827919 C87.9229335,1.15931275 87.309651,1.13212349 86.5969138,1.13212349 L79.8010142,1.13212349 L79.8010142,23.9825718 Z M81.2264885,12.5573477 L81.2264885,2.43785235 L86.5305998,2.43785235 C87.1438822,2.43785235 87.6522137,2.45418523 88.05,2.4922953 C88.4533152,2.52492886 88.7848528,2.57930738 89.0556052,2.64460671 C89.326325,2.71535034 89.563904,2.79695034 89.7793675,2.89488322 C90.3484515,3.14515973 90.8291385,3.48789262 91.2380153,3.92314631 C91.6413304,4.3529557 91.9507197,4.85347651 92.1717448,5.42474094 C92.387241,5.99600537 92.4977535,6.62168054 92.4977535,7.30176644 C92.4922246,8.34091812 92.2877863,9.25491544 91.8844384,10.0437906 C91.4866521,10.8272537 90.9120065,11.4420403 90.1716576,11.882706 C89.4312759,12.323404 88.5472737,12.5519034 87.5251145,12.5573477 L81.2264885,12.5573477 Z M100.387623,23.9825718 L101.813097,23.9825718 L101.813097,12.6226148 L106.122694,12.6226148 L113.21699,23.9825718 L114.940829,23.9825718 L107.349258,11.9697826 L107.349258,11.9044832 L114.476696,1.13212349 L112.752857,1.13212349 L106.122694,11.3169181 L101.813097,11.3169181 L101.813097,1.13212349 L100.387623,1.13212349 L100.387623,23.9825718 Z" id="Fill-1" fill="#FFFFFF"></path>
                    <polyline id="Fill-2" fill="#D70000" points="149.997546 0.00805369128 128.6453 0.00805369128 123.457623 7.64185772 129.008048 7.64185772 126.828222 11.095506 142.999597 11.095506 149.997546 0.00805369128"></polyline>
                    <path d="M132.338212,9.31670336 L134.307219,9.31670336 L137.552781,2.99942013 L137.552781,1.69974765 L132.002846,1.69974765 L132.002846,3.29772886 L135.053686,3.29772886 C135.181734,3.29772886 135.282726,3.29418523 135.35663,3.28883758 C135.428735,3.28352215 135.479215,3.27820671 135.50807,3.27463087 C135.538724,3.26931544 135.553152,3.26577181 135.551352,3.26577181 L135.551352,3.28706577 C135.549553,3.28529396 135.527928,3.30658792 135.482846,3.35097987 C135.437764,3.3936 135.378255,3.46640537 135.302519,3.56759195 C135.228582,3.66881074 135.145649,3.8055302 135.053686,3.97952215 L132.338212,9.31670336 Z M136.20566,7.47372886 L139.635115,7.47372886 L139.635115,9.31670336 L141.506761,9.31670336 L141.506761,7.47372886 L142.426325,7.47372886 L142.426325,5.92903087 L141.506761,5.92903087 L141.506761,1.69974765 L139.191559,1.69974765 L136.20566,6.3445047 L136.20566,7.47372886 Z M138.131352,5.92903087 L138.131352,5.90773691 L139.299749,4.16063356 C139.35386,4.07893691 139.404308,3.99372886 139.451221,3.90317315 C139.496303,3.81261745 139.535954,3.72737718 139.570207,3.64574497 C139.60446,3.56582013 139.631516,3.50013423 139.649542,3.45042685 C139.6694,3.39891544 139.678397,3.37407785 139.678397,3.37230604 L139.700055,3.37230604 C139.700055,3.37407785 139.694624,3.4184698 139.683795,3.50013423 C139.672966,3.58360268 139.66217,3.6901047 139.651374,3.81793289 C139.642345,3.9475651 139.636914,4.08251275 139.635115,4.22454765 L139.635115,5.92903087 L138.131352,5.92903087 Z" id="Fill-3" fill="#FFFFFF"></path>
                    <polyline id="Fill-4" fill="#FFFFFF" points="124.816947 9.53753557 117.850436 9.53753557 115.392137 13.154996 122.533773 13.154996 124.816947 9.53753557"></polyline>
                </g>
            </g>
        </g>
    </g>
</svg>