<?xml version="1.0" encoding="utf-8"?>
<!-- Generator: Adobe Illustrator 21.0.2, SVG Export Plug-In . SVG Version: 6.00 Build 0)  -->
<svg version="1.1" id="Layer_1" xmlns="http://www.w3.org/2000/svg" xmlns:xlink="http://www.w3.org/1999/xlink" x="0px" y="0px"
	 viewBox="0 0 375 375" style="enable-background:new 0 0 375 375;" xml:space="preserve">
<style type="text/css">
	.st0{fill-rule:evenodd;clip-rule:evenodd;fill:#000;}
</style>
<path class="st0" d="M188,375.5c-66.2,0-187.5-112.6-187.5-207C0.5,75.4,91,0.5,188,0.5s187.5,74.9,187.5,168
	C375.5,262.9,254.2,375.5,188,375.5z M88.3,122.9c-22,0-47.2,13.8-47.2,52.1c0,45.1,38.8,85.9,76,85.9c29.1,0,45.9-20.6,45.9-50.8
	C163.1,168.5,123.8,122.9,88.3,122.9z M142.1,288.3c-2.4,0-2.6,0-2.6,2.6c0,9.9,23.9,35.2,48.5,35.2c24.7,0,48.5-25.3,48.5-35.2
	c0-2.6-0.3-2.6-2.6-2.6c-2.4,0-28.1,13-45.9,13C170.2,301.3,144.5,288.3,142.1,288.3z M287.7,122.9c-35.4,0-74.7,45.6-74.7,87.2
	c0,30.2,16.8,50.8,45.9,50.8c37.2,0,76-40.9,76-85.9C334.9,136.7,309.7,122.9,287.7,122.9z"/>
</svg>
