<?xml version="1.0" encoding="UTF-8"?>
<svg width="126px" height="118px" viewBox="0 0 126 118" version="1.1" xmlns="http://www.w3.org/2000/svg" xmlns:xlink="http://www.w3.org/1999/xlink">
    <!-- Generator: Sketch 48.2 (47327) - http://www.bohemiancoding.com/sketch -->
    <title>placeholder</title>
    <desc>Created with Sketch.</desc>
    <defs></defs>
    <g id="Tablet-Portrait" stroke="none" stroke-width="1" fill="none" fill-rule="evenodd" transform="translate(-802.000000, -3569.000000)">
        <g id="sixth-screen" transform="translate(0.000000, 2880.000000)" fill-rule="nonzero">
            <g id="Group-18" transform="translate(802.000000, 644.000000)">
                <g id="placeholder" transform="translate(0.000000, 47.000000)">
                    <g id="Group-16" transform="translate(15.781818, 0.000000)">
                        <path d="M69.8436344,28.048262 C69.5364759,27.8659397 69.1474404,27.8598623 68.8320271,28.0280356 C68.758405,28.0664943 61.3271853,31.9560379 45.7726793,31.9560379 C30.2181733,31.9560379 22.7869535,28.0664943 22.7132355,28.0280356 C22.3999338,27.8578681 22.0108984,27.8639455 21.7016282,28.048262 C21.3904383,28.2305844 21.2,28.5607588 21.2,28.9173319 L21.2,61.3301636 L21.2,65.3818032 C21.2,65.5519707 21.2491454,65.7140667 21.3269908,65.8599246 C21.3515635,65.9044606 21.3945657,65.9348477 21.4252816,65.9753954 C21.4846975,66.0544018 21.5358586,66.1394855 21.6177355,66.2002597 C21.8594309,66.3440284 22.0375828,66.3906536 22.2157347,66.3926477 C22.3283275,66.3946419 22.4327614,66.3784038 22.5310521,66.3480167 L30.9000651,63.7347296 C34.5798239,62.9770473 39.5046303,62.3430023 45.7726793,62.3430023 C61.3271853,62.3430023 68.758405,66.2325459 68.8321231,66.2710045 C68.9836866,66.3540941 69.1535836,66.3945469 69.3215609,66.3945469 C69.5017286,66.3945469 69.6840079,66.3479218 69.8437303,66.2527723 C70.1550163,66.0684558 70.3454545,65.7381864 70.3454545,65.3817082 L70.3454545,64.3688696 L70.3454545,59.3043913 L70.3454545,28.9173319 C70.3453586,28.5607588 70.1549203,28.2305844 69.8436344,28.048262 Z M45.3677323,59.9621277 C38.0384171,60.1259211 30.6650701,61.3615251 23.2476913,63.6689398 L23.2476913,30.4892989 C26.2046677,31.6764862 33.5252144,33.9818252 45.7726793,33.9818252 C58.0201442,33.9818252 65.3406909,31.6764862 68.2976673,30.4892989 L68.2976673,63.6689398 C60.3403591,61.0339383 52.6970475,59.7983343 45.3677323,59.9621277 Z" id="Shape" fill="#666666"></path>
                        <path d="M66.0678058,33.7787491 C65.808829,33.6511234 65.4808188,33.6468693 65.214882,33.7645906 C65.1528085,33.7915117 58.8872703,36.5141922 45.7726868,36.5141922 C32.6581033,36.5141922 26.3925651,33.7915117 26.3304107,33.7645906 C26.0662544,33.6454734 25.7382441,33.6497275 25.4774869,33.7787491 C25.2151111,33.9063747 25.0545455,34.1374968 25.0545455,34.387098 L25.0545455,57.0760802 L25.0545455,59.9122279 C25.0545455,60.0313452 25.0959817,60.1448124 25.1616162,60.2469129 C25.1823343,60.2780881 25.2185911,60.2993591 25.2444887,60.3277425 C25.2945845,60.3830469 25.3377204,60.4426056 25.4067539,60.4851474 C25.6105362,60.5857856 25.7607427,60.6184232 25.9109493,60.6198191 C26.0058804,60.621215 26.0939325,60.6098483 26.1768051,60.5885774 L33.2330318,58.7592764 C36.3355734,58.2288988 40.4878612,57.7850673 45.7726868,57.7850673 C58.8872703,57.7850673 65.1528085,60.5077478 65.2149629,60.5346688 C65.3427518,60.5928316 65.4859983,60.6211485 65.6276262,60.6211485 C65.7795323,60.6211485 65.9332188,60.5885109 66.0678867,60.5219063 C66.3303435,60.3928847 66.4909091,60.1616962 66.4909091,59.9121614 L66.4909091,59.2031744 L66.4909091,55.6580396 L66.4909091,34.387098 C66.4908282,34.1374968 66.3302626,33.9063747 66.0678058,33.7787491 Z" id="Shape-Copy" fill="#666666"></path>
                        <path d="M80.9825175,0 C86.8062168,0 91.5454545,4.74308529 91.5454545,10.5715125 L91.5454545,81.2831852 C91.5454545,87.1116125 86.8062168,91.8546978 80.9825175,91.8546978 L61.7532774,91.8546978 L29.7921772,91.8546978 L10.5629371,91.8546978 C4.73923776,91.8546978 0,87.1116125 0,81.2831852 L0,10.5715125 C0,4.74308529 4.73923776,0 10.5629371,0 L80.9825175,0 Z M84.5034965,81.2831852 L84.5034965,10.5715125 C84.5034965,8.62870345 82.9237506,7.04767502 80.9825175,7.04767502 L10.5629371,7.04767502 C8.62170396,7.04767502 7.04195804,8.62870345 7.04195804,10.5715125 L7.04195804,81.2831852 C7.04195804,83.2259943 8.62170396,84.8070228 10.5629371,84.8070228 L31.6888112,84.8070228 C32.8718601,84.8070228 58.6735944,84.8070228 59.8566434,84.8070228 L80.9825175,84.8070228 C82.9237506,84.8070228 84.5034965,83.2259943 84.5034965,81.2831852 Z" id="Shape" stroke="#666666" stroke-width="3.48218182" fill="#FAFAFA"></path>
                    </g>
                    <g id="360-degrees" transform="translate(0.000000, 78.472540)" fill="#666666">
                        <path d="M108.470287,1.99971227 C107.446712,1.70540867 106.379967,2.3007926 106.087407,3.32891898 C105.794654,4.35704537 106.387098,5.42893005 107.410287,5.72284641 C116.20713,8.25037218 121.67172,11.9163882 121.67172,15.2902304 C121.67172,17.7592827 118.68252,20.4693929 113.470789,22.7256559 C107.736767,25.2078744 99.6025196,27.0240374 90.5572505,27.8420853 L82.6625632,27.7346257 C81.5834832,27.7344321 80.7235341,28.5842337 80.7092723,29.6445012 C80.6948177,30.7136752 81.5460941,31.5923263 82.6101414,31.6066542 L90.6042759,31.7154691 C90.6877268,31.7156627 90.7447741,31.7131457 90.8016287,31.7081115 C100.28304,30.8588908 108.8754,28.931783 114.996225,26.2820826 C123.699403,22.5140284 125.526265,18.2249407 125.526265,15.2902304 C125.526265,9.87988473 119.468847,5.15979716 108.470287,1.99971227 Z" id="Shape"></path>
                        <path d="M35.2415309,17.7863346 C34.5540727,16.9700243 33.3379636,16.8679855 32.5254255,17.5586351 C31.7126945,18.2492847 31.61132,19.4708458 32.2985855,20.2873497 L36.6091236,25.4067148 C27.5131673,24.7098693 19.27504,23.0350392 13.2178145,20.633933 C7.26736,18.2748428 3.85454545,15.3902626 3.85454545,12.7192474 C3.85454545,9.61781051 8.42912,6.2755079 16.0913782,3.77855886 C17.1039673,3.44862701 17.6584436,2.35659904 17.3300364,1.33930917 C17.0018218,0.322212909 15.9144545,-0.234837525 14.9022509,0.0949007057 C10.4446618,1.54745279 6.90985091,3.27552896 4.39572364,5.23091732 C1.47898909,7.50016692 0,10.0193825 0,12.7192474 C0,17.1926896 4.08157818,21.1749128 11.8030036,24.2358827 C18.0789745,26.7237315 26.4940255,28.4702017 35.7447418,29.2231976 L31.9009891,33.5030178 C31.1878982,34.296868 31.2503418,35.5213334 32.0407164,36.2375411 C32.4092109,36.5717326 32.8709855,36.7363113 33.3312182,36.7363113 C33.8575564,36.7363113 34.38216,36.52081 34.7626036,36.0971651 L41.7753709,28.2893588 C41.9883988,28.0522364 42.1468173,27.6573207 42.2506264,27.1046115 C42.2506264,26.6466955 42.1103309,25.9434349 41.8160364,25.5939472 L35.2415309,17.7863346 Z" id="Shape"></path>
                    </g>
                </g>
            </g>
        </g>
    </g>
</svg>