<?xml version="1.0" encoding="UTF-8" standalone="no"?>
<!DOCTYPE svg PUBLIC "-//W3C//DTD SVG 1.1//EN"
"http://www.w3.org/Graphics/SVG/1.1/DTD/svg11.dtd">


<!-- Page 1 -->
<svg x="0" y="0" width="1286" height="909" viewBox="0 0 1286 909" version="1.1" xmlns="http://www.w3.org/2000/svg" xmlns:xlink="http://www.w3.org/1999/xlink"
style="display: block;margin-left: auto;margin-right: auto;">
<defs>

<style type="text/css"><![CDATA[

.g1_1{
fill: #868686;
}
.g2_1{
fill: #C6D330;
}
.g3_1{
fill: #67696A;
}

.s1_1{
font-size: 87.28px;
font-family: HelveticaNeueCyr-Bold_7;
fill: TRANSPARENT;
}
text::-moz-selection {
	color: transparent;
	background: rgba(0, 106, 173, 0.4);
}
text::selection {
	color: transparent;
	background: rgba(0, 106, 173, 0.4);
}

]]></style>

</defs>
<path d="M0,0
L0,909
L1286,909
L1286,0 Z " 
fill="#FFFFFF" stroke="none" />
<path d="M1262.4,530.3l-855.2,0l0,-438.7l855.2,0l0,438.7Z" class="g1_1" />
<g fill="#FFFFFF" >
<use xlink:href="#f0_e" transform="matrix(57.1,0,0,57.1,458.7,278.5)" />
<use xlink:href="#f0_d" transform="matrix(57.1,0,0,57.1,516.9,278.5)" />
<use xlink:href="#f0_c" transform="matrix(57.1,0,0,57.1,573.5,278.5)" />
<use xlink:href="#f0_b" transform="matrix(57.1,0,0,57.1,623.6,278.5)" />
<use xlink:href="#f0_a" transform="matrix(57.1,0,0,57.1,688.3,278.5)" />
<use xlink:href="#f0_9" transform="matrix(57.1,0,0,57.1,756.2,278.5)" />
<use xlink:href="#f0_8" transform="matrix(57.1,0,0,57.1,820.9,278.5)" />
<use xlink:href="#f0_7" transform="matrix(57.1,0,0,57.1,880.7,278.5)" />
<use xlink:href="#f0_6" transform="matrix(57.1,0,0,57.1,943.7,278.5)" />
<use xlink:href="#f0_9" transform="matrix(57.1,0,0,57.1,1001.9,278.5)" />
<use xlink:href="#f0_5" transform="matrix(57.1,0,0,57.1,1066.6,278.5)" />
<use xlink:href="#f0_4" transform="matrix(57.1,0,0,57.1,1145.7,278.5)" />
<use xlink:href="#f0_a" transform="matrix(57.1,0,0,57.1,740.3,383.2)" />
</g>
<text 
x="458" 
y="278" 
class="s1_1"
>РЕГИОНАЛЬНЫЙ</text>

<g fill="#FFFFFF" >
<use xlink:href="#f0_3" transform="matrix(57.1,0,0,57.1,808.2,383.2)" />
<use xlink:href="#f0_d" transform="matrix(57.1,0,0,57.1,872.9,383.2)" />
<use xlink:href="#f0_e" transform="matrix(57.1,0,0,57.1,929.4,383.2)" />
<use xlink:href="#f0_8" transform="matrix(57.1,0,0,57.1,981.2,383.2)" />
<use xlink:href="#f0_2" transform="matrix(57.1,0,0,57.1,1034.5,383.2)" />
<use xlink:href="#f0_a" transform="matrix(57.1,0,0,57.1,1086.3,383.2)" />
<use xlink:href="#f0_e" transform="matrix(57.1,0,0,57.1,1154.2,383.2)" />
</g>
<text 
x="740" 
y="383" 
dx="0,0,0,0,-6.5,-6.5,-1.6,0" 
class="s1_1"
>ОПЕРАТОР</text>

<path d="M29.9,801.8l688.2,0l0,-495.8L29.9,306l0,495.8Z" class="g2_1" />
<path d="M234,495.4L180.2,482.3c-9.1,-2.1,-23.4,-5.8,-23.4,-23.1c0,-19.8,21,-26.4,38.6,-26.4c40.1,0,43.8,23.4,45,33.4l25.5,0l0,41.1c-9.3,-5.5,-20.4,-9,-31.9,-11.9M204.8,626.9c11.5,0,39.9,-2,61.1,-17.5l0,11.7l42.9,0l0,-51.6L326.7,551l38.9,70.1l51.3,0L358,520.9l57.4,-63.2l-52.6,0l-54,62l0,-119.1l-42.9,0l0,18.8c-13,-14,-34.2,-24.6,-67.1,-24.6c-71.4,0,-84.8,43.4,-84.8,67.7c0,33.4,17.9,52,49.2,59.6L207.6,533c23.4,5.8,40.1,10.1,40.1,27.4c0,23.1,-24.4,28.5,-46.2,28.5c-40.1,0,-46.8,-23.4,-46.8,-35.8l-44.1,0c0,27.3,14,73.8,94.2,73.8Z" class="g3_1" />
<path d="M157.6,659.8c-1.2,-4.4,-3.6,-13,-16.2,-13c-7.3,0,-18.3,5.3,-18.3,25.9c0,13,5.5,25.2,18.3,25.2c8.5,0,14.4,-5.1,16.2,-14.1l15.2,0c-3,15.9,-13.3,26.9,-31.6,26.9c-19.4,0,-33.3,-13.1,-33.3,-38.2c0,-25.6,14.7,-38.5,33.5,-38.5c21.8,0,30.6,15,31.4,25.8Z" class="g3_1" />
<path d="M191.4,675.3l17.9,-20.5l17.4,0l-19,20.9l19.5,33.1l-17,0L197.3,685.6l-5.9,6.2l0,17l-14.2,0l0,-54l14.2,0Z" class="g3_1" />
<path d="M238.5,681.7c0,6.9,2.1,16.6,13,16.6c11,0,13,-9.6,13,-16.5c0,-6.9,-2,-16.5,-13,-16.5c-10.9,0,-13,9.5,-13,16.4m40.6,0c0,19.5,-13.1,28.6,-27.6,28.6c-14.4,0,-27.6,-9,-27.6,-28.5c0,-19.5,13.2,-28.4,27.6,-28.4c14.5,0,27.6,8.8,27.6,28.3Z" class="g3_1" />
<path d="M332.3,654.8l0,54l-14.1,0l0,-42.7l-15.2,0l0,16.7c0,20.7,-6.2,27.2,-16.2,27.2c-2.5,0,-6.5,-0.4,-8.6,-1.2l0,-10.5c0.3,0.2,2.1,0.4,4.2,0.4c4.2,0,6.4,-2.1,6.4,-18.6l0,-25.3Z" class="g3_1" />
<path d="M353.8,675.3l17.8,-20.5l17.4,0l-19,20.9l19.5,33.1l-17,0L359.7,685.6l-5.9,6.2l0,17l-14.2,0l0,-54l14.2,0Z" class="g3_1" />
<path d="M400.8,681.7c0,6.9,2.1,16.6,13.1,16.6c10.9,0,12.9,-9.6,12.9,-16.5c0,-6.9,-2,-16.5,-12.9,-16.5c-11,0,-13.1,9.5,-13.1,16.4m40.6,0c0,19.5,-13.1,28.6,-27.5,28.6c-14.5,0,-27.7,-9,-27.7,-28.5c0,-19.5,13.2,-28.4,27.7,-28.4c14.4,0,27.5,8.8,27.5,28.3Z" class="g3_1" />
<path d="M460.1,699.1l10.5,0c5.2,0,8.4,-1.6,8.4,-6.9c0,-4.8,-3.4,-6.9,-8.6,-6.9l-10.3,0Zm0,-22.4l9.3,0c4.7,0,8,-1.9,8,-6.2c0,-4.4,-3.2,-6,-7.9,-6l-9.4,0ZM446,654.8l24.4,0c12.1,0,20.9,4.9,20.9,13.9c0,6.3,-4.4,10.3,-10.1,11.7c5.6,1.3,11.7,4.9,11.7,13.7c0,10,-7.6,14.7,-19.8,14.7l-27.1,0Z" class="g3_1" />
<path d="M509.1,681.7c0,6.9,2.1,16.6,13,16.6c11,0,13,-9.6,13,-16.5c0,-6.9,-2,-16.5,-13,-16.5c-10.9,0,-13,9.5,-13,16.4m40.6,0c0,19.5,-13.1,28.6,-27.6,28.6c-14.4,0,-27.6,-9,-27.6,-28.5c0,-19.5,13.2,-28.4,27.6,-28.4c14.5,0,27.6,8.8,27.6,28.3Z" class="g3_1" />

<defs>
	<path d="M556.1,579c107,0,186.4,35.2,186.4,155.9c0,116.1,-79.4,157.3,-184.9,157.3l-213.8,0l0,-313.2ZM106.9,0l0,1087.8l469.1,0c235.3,0,398.7,-110,398.7,-349.9c0,-236.8,-168,-346.8,-386.5,-346.8l-244.4,0L343.8,0Z" 
	id="f0_e"
	transform="scale(0.001,-0.001)" />

	<path d="M105.4,0l0,1087.8l815.9,0l0,-195.6l-579.1,0l0,-236.8l531.7,0l0,-187.9l-531.7,0l0,-267.4l589.7,0L931.9,0Z" 
	id="f0_d"
	transform="scale(0.001,-0.001)" />

	<path d="M105.4,0l0,1087.8l757.8,0l0,-203.2l-519.4,0L343.8,0Z" 
	id="f0_c"
	transform="scale(0.001,-0.001)" />

	<path d="M105.4,0l0,1087.8l238.4,0l0,-753.2l4.5,0l409.5,753.2l268.9,0L1026.7,0L788.3,0l0,754.7l-4.5,0L374.3,0Z" 
	id="f0_b"
	transform="scale(0.001,-0.001)" />

	<path d="M597.4,171.1c180.2,0,291.8,143.6,291.8,375.8c0,229.2,-113.1,371.3,-294.9,371.3C414,918.2,299.4,773.1,299.4,546.9c0,-233.7,113.1,-374.3,298,-375.8Zm-1.6,-197C273.5,-25.9,58.1,201.7,58.1,542.4c0,345.2,213.8,571.4,539.3,571.4c317.7,0,533.2,-230.7,533.2,-571.4C1130.6,203.2,915.1,-25.9,595.8,-25.9Z" 
	id="f0_a"
	transform="scale(0.001,-0.001)" />

	<path d="M105.4,0l0,1087.8l238.4,0l0,-409.5l444.5,0l0,409.5l238.4,0L1026.7,0L788.3,0l0,469l-444.5,0l0,-469Z" 
	id="f0_9"
	transform="scale(0.001,-0.001)" />

	<path d="M666.1,417.1L522.5,821.9L377.4,417.1ZM-13.7,0l414,1089.3l246,0L1060.3,0L809.7,0L724.2,242.9l-404.9,0L230.7,0Z" 
	id="f0_8"
	transform="scale(0.001,-0.001)" />

	<path d="M154.3,-21.3C111.5,-21.3,51.9,-13.7,19.9,-3l0,192.4c18.3,-9.1,53.4,-18.3,84,-18.3c64.2,0,116.1,32.1,122.2,255.2l18.3,661.5l757.8,0L1002.2,0L763.9,0l0,884.6l-291.8,0L456.8,423.2C446.1,114.6,340.7,-21.3,154.3,-21.3Z" 
	id="f0_7"
	transform="scale(0.001,-0.001)" />

	<path d="M565.3,195.6c114.6,0,184.8,41.2,184.8,157.3c0,114.6,-79.4,155.9,-186.3,155.9l-224.6,0l0,-313.2ZM102.4,0l0,1087.8l236.8,0l0,-391.1l256.6,0c218.5,0,386.6,-110,386.6,-346.8C982.4,110,818.9,0,583.6,0Z" 
	id="f0_6"
	transform="scale(0.001,-0.001)" />

	<path d="M510.3,195.6c114.6,0,184.8,41.2,184.8,157.3c0,114.6,-79.4,155.9,-186.3,155.9l-166.6,0l0,-313.2ZM105.4,0l0,1087.8l236.8,0l0,-391.1l198.6,0c218.5,0,386.6,-110,386.6,-346.8C927.4,110,763.9,0,528.6,0Zm938.1,0l0,1087.8l238.3,0L1281.8,0Z" 
	id="f0_5"
	transform="scale(0.001,-0.001)" />

	<path d="M105.4,0l0,1087.8l238.4,0l0,-753.2l4.5,0l409.5,753.2l268.9,0L1026.7,0L788.3,0l0,754.7l-4.5,0L374.3,0ZM566.8,1161.1c-148.2,0,-249,62.7,-249,220l85.5,0c13.8,-70.3,81,-100.8,163.5,-100.8c82.5,0,149.7,30.5,163.5,100.8l85.5,0c0,-157.3,-100.8,-220,-249,-220Z" 
	id="f0_4"
	transform="scale(0.001,-0.001)" />

	<path d="M105.4,0l0,1087.8l921.3,0L1026.7,0L788.3,0l0,884.6l-444.5,0L343.8,0Z" 
	id="f0_3"
	transform="scale(0.001,-0.001)" />

	<path d="M346.8,0l0,884.6l-326.9,0l0,203.2l893.7,0l0,-203.2l-326.9,0L586.7,0Z" 
	id="f0_2"
	transform="scale(0.001,-0.001)" />


</defs>

<!-- Any embedded fonts defined here -->
<style type="text/css" ><![CDATA[

@font-face {
	font-family: HelveticaNeueCyr-Bold_7;
	src: url("fonts/HelveticaNeueCyr-Bold_7.woff") format("woff");
}

]]></style>

</svg>
