<svg xmlns="http://www.w3.org/2000/svg" viewBox="0 0 154 36"><path d="M19.798 2.351c-2.133.196-11.912 4.339-16.873 10.79S4.16 25.03 4.16 25.03a35.824 35.824 0 0 0 15.081 8.232c7.96 2.134 10.333-2.756 11.085-4.332 1.46-3.06 2.886-12.071.012-20.592S19.798 2.35 19.798 2.35zm-1.66 28.446a12.736 12.736 0 1 1 12.734-12.735 12.735 12.735 0 0 1-12.734 12.735z" fill="#f25100"/><path d="M24.626 10.153h-.003a3.558 3.558 0 0 0-2.052-.514H13.27a3.43 3.43 0 0 0-1.875.494v.038h-.057a9.468 9.468 0 0 0-2.216 2.615h2.241a8.149 8.149 0 0 1 .749-.833l.008.001a1.486 1.486 0 0 1 1.205-.48h9.396a2.014 2.014 0 0 1 1.023.365 8.46 8.46 0 0 1 2.635 5.02.601.601 0 0 1-.46.253H8.77a1.256 1.256 0 0 0-1.045 1.163v.066a1.45 1.45 0 0 0-.036.31 10.3 10.3 0 0 0 3.6 7.24l.107.001v.034a3.43 3.43 0 0 0 1.875.494h9.3a3.535 3.535 0 0 0 2.058-.518h.06a10.895 10.895 0 0 0 2.127-2.497h-2.258a9.502 9.502 0 0 1-.722.764 1.402 1.402 0 0 1-1.114.416h-9.396a1.486 1.486 0 0 1-1.205-.48.142.142 0 0 0-.041.01 8.45 8.45 0 0 1-2.487-4.96.563.563 0 0 1 .397-.207h17.26a1.382 1.382 0 0 0 1.048-1.432l.01.007v-.02l-.01-.006a10.307 10.307 0 0 0-3.67-7.344zm74.407 1.267a4.62 4.62 0 0 0-2.122-1.51 9.456 9.456 0 0 0-3.17-.41h-6.913c-2.295 0-4.01.52-5.135 1.599a6.755 6.755 0 0 0-1.693 4.9v4.246c0 4.088 2.35 6.175 7.03 6.175h6.846a8.05 8.05 0 0 0 3.592-.764 3.556 3.556 0 0 0 1.565-1.373v3.756a3.271 3.271 0 0 1-1.228 2.557 7.795 7.795 0 0 1-4.097.904h-6.239a7.175 7.175 0 0 1-3.527-.853 2.476 2.476 0 0 1-1.097-1.9h-1.966a4.11 4.11 0 0 0 1.696 3.537 8.035 8.035 0 0 0 4.658 1.216h6.643c2.498 0 4.36-.5 5.554-1.534A4.792 4.792 0 0 0 101 28.14V9.5h-1.967v1.92zm-.018 8.328a4.523 4.523 0 0 1-1.382 3.419A5.559 5.559 0 0 1 93.63 24.5h-5.88a6.892 6.892 0 0 1-4.363-1.156A4.379 4.379 0 0 1 82 19.712v-3.577a4.336 4.336 0 0 1 1.298-3.537c.886-.742 2.348-1.098 4.452-1.098h5.88a5.725 5.725 0 0 1 4.092 1.293 4.402 4.402 0 0 1 1.293 3.343v3.612zM122.64 9.555h-6.413a8.651 8.651 0 0 0-3.697.72 3.483 3.483 0 0 0-1.695 1.603V9.555H109V26.42h1.835V16.166a5.157 5.157 0 0 1 1.536-3.719 5.403 5.403 0 0 1 3.723-1.057h6.606a6.009 6.009 0 0 1 3.96 1.237 4.45 4.45 0 0 1 1.35 3.457v10.329l1.967.005V16.5a7.03 7.03 0 0 0-1.61-4.887c-1.237-1.37-3.161-2.058-5.727-2.058zm-52 0h-6.413a8.651 8.651 0 0 0-3.697.72 3.483 3.483 0 0 0-1.695 1.603V9.555H57V26.42h1.835V16.166a5.157 5.157 0 0 1 1.536-3.719 5.403 5.403 0 0 1 3.723-1.057H70.7a6.009 6.009 0 0 1 3.96 1.237 4.45 4.45 0 0 1 1.35 3.457v10.329l1.967.005V16.5a7.03 7.03 0 0 0-1.61-4.887c-1.237-1.37-3.161-2.058-5.727-2.058zM104 5.5h2v2h-2zm0 4h2v17h-2zm-49 9v-3.031A5.986 5.986 0 0 0 49.031 9.5H39.97A5.986 5.986 0 0 0 34 15.469v5.062a5.986 5.986 0 0 0 5.969 5.969h9.698a5.335 5.335 0 0 0 5.3-5h-2a3.326 3.326 0 0 1-3.3 3h-9.698A3.973 3.973 0 0 1 36 20.531V18.5h19zm-15.031-7h9.062A3.973 3.973 0 0 1 53 15.469V16.5H36v-1.031a3.973 3.973 0 0 1 3.969-3.969zM153 18.5v-3.031a5.986 5.986 0 0 0-5.969-5.969h-9.062A5.986 5.986 0 0 0 132 15.469v5.062a5.986 5.986 0 0 0 5.969 5.969h9.698a5.335 5.335 0 0 0 5.3-5h-2a3.326 3.326 0 0 1-3.3 3h-9.698A3.973 3.973 0 0 1 134 20.531V18.5h19zm-15.031-7h9.062A3.973 3.973 0 0 1 151 15.469V16.5h-17v-1.031a3.973 3.973 0 0 1 3.969-3.969z" fill="#f25100"/></svg>