<svg width="150" height="24" xmlns="http://www.w3.org/2000/svg">
	<g fill="none" fill-rule="evenodd">
		<path d="M.073 5.602h5.603V.642H.073v4.96zm-.066 18.38h5.735V7.935H.007v16.049zm15.183 0h5.802V5.54h7.193V.642H7.996V5.54h7.194v18.444zm25.99 0h1.426v-9.466h6.199c1.017-.005 1.956-.158 2.812-.468a6.596 6.596 0 0 0 2.238-1.338 6.024 6.024 0 0 0 1.475-2.117c.354-.832.53-1.762.536-2.802-.005-1.039-.182-1.97-.536-2.79a5.89 5.89 0 0 0-1.475-2.095 6.546 6.546 0 0 0-2.238-1.317c-.856-.305-1.795-.457-2.812-.457H41.18v22.85zm1.426-10.772V2.438h6.133c1.132 0 2.121.212 2.967.626a4.555 4.555 0 0 1 1.961 1.817c.464.794.702 1.762.707 2.91-.005 1.148-.243 2.122-.707 2.927a4.663 4.663 0 0 1-1.961 1.85c-.846.425-1.835.637-2.967.642h-6.133zm31.493 10.773h1.525l-8.685-22.85h-1.525l-8.686 22.85h1.525l2.984-7.9h9.845l3.017 7.9zM66.21 2.764c0 .006.028.104.083.289.055.19.127.424.21.712.088.289.182.588.282.898.1.31.193.593.287.843l3.514 9.271h-8.851l3.547-9.27c.094-.25.188-.534.287-.844.1-.31.194-.61.282-.898.083-.288.155-.522.21-.712.055-.185.083-.283.083-.289h.066zm13.592 21.219h1.425v-10.12h6.664l5.503 10.12h1.69l-5.204-9.5a5.723 5.723 0 0 0-.376-.614 2.22 2.22 0 0 0-.155-.202v-.065a5.637 5.637 0 0 0 2.415-1.17 5.97 5.97 0 0 0 1.63-2.176c.392-.876.591-1.86.597-2.954-.006-.87-.139-1.665-.404-2.372a5.714 5.714 0 0 0-1.121-1.85 5.653 5.653 0 0 0-2.708-1.643 7.908 7.908 0 0 0-1.326-.229 19.449 19.449 0 0 0-1.834-.076H79.8v22.85zm1.425-11.426V2.437h5.305c.613 0 1.121.017 1.519.055.403.033.735.087 1.006.153.27.07.508.152.723.25.57.25 1.05.593 1.459 1.028.403.43.713.93.934 1.502.215.571.326 1.197.326 1.877-.006 1.039-.21 1.953-.614 2.742a4.437 4.437 0 0 1-1.712 1.839c-.74.44-1.625.669-2.647.674h-6.299zm19.162 11.426h1.425v-11.36h4.31l7.094 11.36h1.724L107.35 11.97v-.066l7.128-10.772h-1.724l-6.63 10.185h-4.31V1.132h-1.425v22.85z" fill="#FFF"/>
		<path fill="#D70000" d="M149.998.008h-21.353l-5.187 7.634h5.55l-2.18 3.454H143L149.998.008"/><path d="M132.338 9.317h1.97l3.245-6.318V1.7h-5.55v1.599h3.05a4.338 4.338 0 0 0 .455-.023.345.345 0 0 0 .043-.01v.022a1.85 1.85 0 0 0-.249.28 3.439 3.439 0 0 0-.248.413l-2.716 5.337zm3.868-1.843h3.43v1.843h1.87V7.474h.92V5.929h-.92v-4.23h-2.314l-2.986 4.646v1.129zm1.925-1.545v-.021L139.3 4.16a2.782 2.782 0 0 0 .27-.515 3.986 3.986 0 0 0 .108-.274h.022l-.016.128c-.011.084-.022.19-.033.318-.009.13-.014.265-.016.407v1.704h-1.504zm-13.314 3.609h-6.967l-2.458 3.617h7.142l2.283-3.617" fill="#FFF"/></g></svg>