<svg width="100" height="16" xmlns="http://www.w3.org/2000/svg"><g fill="none" fill-rule="evenodd"><path d="M.049 3.735h3.735V.428H.049v3.307zM.005 15.988h3.823V5.29H.005v10.7zm10.122 0h3.867V3.693h4.796V.428H5.33v3.265h4.797v12.295zm17.327 0h.95v-6.31h4.133a5.563 5.563 0 0 0 1.875-.313 4.397 4.397 0 0 0 1.491-.892c.424-.392.752-.86.984-1.41.236-.556.353-1.176.357-1.869-.004-.693-.121-1.313-.357-1.86a3.927 3.927 0 0 0-.984-1.397 4.364 4.364 0 0 0-1.491-.878 5.563 5.563 0 0 0-1.875-.304h-5.083v15.233zm.95-7.181V1.625h4.088c.756 0 1.415.142 1.978.417.56.276.995.679 1.308 1.212.31.53.468 1.175.472 1.94-.004.766-.162 1.415-.472 1.952-.313.536-.748.95-1.308 1.233-.563.283-1.222.424-1.978.428h-4.088zm20.995 7.181h1.017L44.626.755h-1.017l-5.79 15.233h1.016l1.99-5.266h6.563l2.011 5.266zM44.14 1.843c0 .004.019.069.056.192l.14.475c.059.192.121.392.188.599.066.206.128.395.191.562l2.343 6.18h-5.901l2.365-6.18a12.5 12.5 0 0 0 .191-.562c.066-.207.13-.407.188-.599.055-.192.103-.348.14-.475.037-.123.055-.188.055-.192h.044zm9.062 14.145h.95V9.242h4.442l3.669 6.746h1.127l-3.47-6.332a3.816 3.816 0 0 0-.25-.41 1.691 1.691 0 0 0-.103-.135v-.043a3.758 3.758 0 0 0 1.61-.78 3.98 3.98 0 0 0 1.086-1.45c.261-.585.394-1.241.398-1.97a4.57 4.57 0 0 0-.27-1.582 3.81 3.81 0 0 0-.747-1.233A3.769 3.769 0 0 0 59.838.958a5.272 5.272 0 0 0-.884-.152 12.846 12.846 0 0 0-1.223-.051h-4.53v15.233zm.95-7.616V1.625h3.536c.409 0 .748.011 1.013.037.269.021.49.058.67.101.18.047.34.102.483.167.38.167.7.395.972.685.27.287.475.62.623 1.001.143.381.217.798.217 1.252-.004.693-.14 1.302-.409 1.828a2.958 2.958 0 0 1-1.142 1.226c-.493.294-1.082.446-1.764.45h-4.199zm12.774 7.616h.95V8.415h2.873l4.73 7.573h1.15L71.565 7.98v-.044L76.318.755h-1.15l-4.42 6.79h-2.873V.755h-.95v15.233z" fill="#00C2FF"/><path fill="#D70000" d="M99.998.005H85.764l-3.459 5.09h3.7l-1.453 2.302h10.781L99.998.005"/><path d="M88.225 6.211h1.313L91.702 2v-.867h-3.7v1.065h2.034a2.892 2.892 0 0 0 .303-.015.23.23 0 0 0 .029-.006v.014a1.233 1.233 0 0 0-.166.187c-.05.068-.105.159-.166.275l-1.81 3.558zm2.579-1.229h2.286v1.23h1.248v-1.23h.613v-1.03h-.613V1.134h-1.544l-1.99 3.097v.752zm1.284-1.03v-.014l.778-1.164a1.855 1.855 0 0 0 .18-.344 2.658 2.658 0 0 0 .073-.182h.014l-.01.085a4.766 4.766 0 0 0-.032.483v1.137h-1.003z" fill="#FFF"/><path fill="#00C2FF" d="M83.211 6.358h-4.644L76.928 8.77h4.761l1.522-2.412"/></g></svg>