<svg width="40" height="16" xmlns="http://www.w3.org/2000/svg"><g fill="none" fill-rule="evenodd"><path d="M.049 3.735h3.735V.428H.049v3.307zM.005 15.988h3.823V5.29H.005v10.7zm10.122 0h3.867V3.693h4.796V.428H5.33v3.265h4.797v12.295z" fill="#00C2FF"/><path fill="#D70000" d="M39.998.005H25.764l-3.459 5.09h3.7l-1.453 2.302h10.781L39.998.005"/><path d="M28.225 6.211h1.313L31.702 2v-.867h-3.7v1.065h2.034a2.892 2.892 0 0 0 .303-.015.23.23 0 0 0 .029-.006v.014a1.233 1.233 0 0 0-.166.187c-.05.068-.105.159-.166.275l-1.81 3.558zm2.579-1.229h2.286v1.23h1.248v-1.23h.613v-1.03h-.613V1.134h-1.544l-1.99 3.097v.752zm1.284-1.03v-.014l.778-1.164a1.855 1.855 0 0 0 .18-.344 2.658 2.658 0 0 0 .073-.182h.014l-.01.085a4.766 4.766 0 0 0-.032.483v1.137h-1.003z" fill="#FFF"/><path fill="#00C2FF" d="M23.211 6.358h-4.644L16.928 8.77h4.761l1.522-2.412"/></g></svg>