<svg xmlns="http://www.w3.org/2000/svg" viewBox="0 0 375 375"><path fill="#fff" d="M188 375.5C121.8 375.5.5 262.9.5 168.5.5 75.4 91 .5 188 .5s187.5 74.9 187.5 168c0 94.4-121.3 207-187.5 207zM88.3 122.9c-22 0-47.2 13.8-47.2 52.1 0 45.1 38.8 85.9 76 85.9 29.1 0 45.9-20.6 45.9-50.8.1-41.6-39.2-87.2-74.7-87.2zm53.8 165.4c-2.4 0-2.6 0-2.6 2.6 0 9.9 23.9 35.2 48.5 35.2 24.7 0 48.5-25.3 48.5-35.2 0-2.6-.3-2.6-2.6-2.6-2.4 0-28.1 13-45.9 13-17.8 0-43.5-13-45.9-13zm145.6-165.4c-35.4 0-74.7 45.6-74.7 87.2 0 30.2 16.8 50.8 45.9 50.8 37.2 0 76-40.9 76-85.9 0-38.3-25.2-52.1-47.2-52.1z" fill-rule="evenodd" clip-rule="evenodd"/></svg>