<svg width="126" height="118" xmlns="http://www.w3.org/2000/svg"><g fill="none"><path d="M85.625 30.048a1.04 1.04 0 0 0-1.011-.02c-.074.038-7.505 3.928-23.06 3.928-15.554 0-22.985-3.89-23.059-3.928a1.03 1.03 0 0 0-1.012.02 1.008 1.008 0 0 0-.501.87v36.464c0 .17.049.332.127.478.024.044.067.075.098.115.06.08.11.164.193.225.241.144.42.19.598.193a.998.998 0 0 0 .315-.045l8.369-2.613c3.68-.758 8.604-1.392 14.872-1.392 15.555 0 22.986 3.89 23.06 3.928a1.022 1.022 0 0 0 1.513-.89V30.918c0-.356-.19-.686-.502-.869zM61.15 61.962c-7.33.164-14.703 1.4-22.12 3.707v-33.18c2.956 1.187 10.277 3.493 22.524 3.493 12.248 0 19.569-2.306 22.525-3.493v33.18c-7.957-2.635-15.6-3.87-22.93-3.707z" fill="#666"/><path d="M81.85 35.779a1.034 1.034 0 0 0-.853-.014c-.062.027-6.328 2.75-19.442 2.75-13.115 0-19.38-2.723-19.443-2.75a1.024 1.024 0 0 0-.853.014c-.262.127-.423.358-.423.608v25.525c0 .12.042.233.107.335.021.031.057.052.083.08.05.056.094.116.163.158.203.1.354.133.504.135.095.001.183-.01.266-.031l7.056-1.83c3.102-.53 7.255-.974 12.54-.974 13.114 0 19.38 2.723 19.442 2.75.128.058.27.086.412.086a1 1 0 0 0 .44-.1c.263-.128.424-.36.424-.609V36.388c0-.25-.16-.482-.423-.61z" fill="#666"/><path d="M96.764 2c5.824 0 10.563 4.743 10.563 10.572v70.711c0 5.829-4.739 10.572-10.563 10.572h-70.42c-5.823 0-10.562-4.743-10.562-10.572V12.572C15.782 6.743 20.522 2 26.345 2h70.42zm3.521 81.283V12.572a3.527 3.527 0 0 0-3.52-3.524h-70.42a3.527 3.527 0 0 0-3.521 3.524v70.711a3.527 3.527 0 0 0 3.52 3.524h70.42a3.527 3.527 0 0 0 3.521-3.524z" stroke="#666" stroke-width="3.482" fill="#FAFAFA"/><path d="M108.47 82.472a1.926 1.926 0 0 0-2.383 1.33c-.292 1.028.3 2.1 1.323 2.393 8.797 2.528 14.262 6.194 14.262 9.568 0 2.469-2.99 5.179-8.201 7.435-5.734 2.482-13.868 4.299-22.914 5.117l-7.894-.108a1.937 1.937 0 0 0-.053 3.872l7.994.109c.084 0 .14-.002.198-.007 9.481-.85 18.073-2.777 24.194-5.426 8.703-3.768 10.53-8.058 10.53-10.992 0-5.41-6.057-10.13-17.056-13.29zM35.242 98.259a1.921 1.921 0 0 0-2.717-.228 1.942 1.942 0 0 0-.226 2.729l4.31 5.12c-9.096-.698-17.334-2.372-23.391-4.774-5.95-2.359-9.363-5.243-9.363-7.914 0-3.102 4.574-6.444 12.236-8.94a1.938 1.938 0 0 0 1.239-2.44 1.926 1.926 0 0 0-2.428-1.245c-4.457 1.453-7.992 3.181-10.506 5.136C1.479 87.973 0 90.492 0 93.192c0 4.473 4.082 8.455 11.803 11.516 6.276 2.488 14.691 4.235 23.942 4.988l-3.844 4.28a1.942 1.942 0 0 0 .14 2.734 1.918 1.918 0 0 0 2.722-.14l7.012-7.808c.213-.237.372-.632.476-1.185 0-.458-.14-1.161-.435-1.51l-6.574-7.808z" fill="#666"/></g></svg>