<svg width="1286" height="909" xmlns="http://www.w3.org/2000/svg" xmlns:xlink="http://www.w3.org/1999/xlink" style="margin-left:auto;margin-right:auto" display="block"><defs><style>.g3_1{fill:#67696a}.s1_1{font-size:87.28px;font-family:HelveticaNeueCyr-Bold_7;fill:TRANSPARENT}text::-moz-selection{color:transparent;background:rgba(0,106,173,.4)}text::selection{color:transparent;background:rgba(0,106,173,.4)}</style></defs><path d="M0 0v909h1286V0z" fill="#FFF"/><path d="M1262.4 530.3H407.2V91.6h855.2v438.7z" fill="#868686"/><g fill="#FFF"><use xlink:href="#f0_e" transform="matrix(57.1 0 0 57.1 458.7 278.5)"/><use xlink:href="#f0_d" transform="matrix(57.1 0 0 57.1 516.9 278.5)"/><use xlink:href="#f0_c" transform="matrix(57.1 0 0 57.1 573.5 278.5)"/><use xlink:href="#f0_b" transform="matrix(57.1 0 0 57.1 623.6 278.5)"/><use xlink:href="#f0_a" transform="matrix(57.1 0 0 57.1 688.3 278.5)"/><use xlink:href="#f0_9" transform="matrix(57.1 0 0 57.1 756.2 278.5)"/><use xlink:href="#f0_8" transform="matrix(57.1 0 0 57.1 820.9 278.5)"/><use xlink:href="#f0_7" transform="matrix(57.1 0 0 57.1 880.7 278.5)"/><use xlink:href="#f0_6" transform="matrix(57.1 0 0 57.1 943.7 278.5)"/><use xlink:href="#f0_9" transform="matrix(57.1 0 0 57.1 1001.9 278.5)"/><use xlink:href="#f0_5" transform="matrix(57.1 0 0 57.1 1066.6 278.5)"/><use xlink:href="#f0_4" transform="matrix(57.1 0 0 57.1 1145.7 278.5)"/><use xlink:href="#f0_a" transform="matrix(57.1 0 0 57.1 740.3 383.2)"/></g><text x="458" y="278" class="s1_1">РЕГИОНАЛЬНЫЙ</text><g fill="#FFF"><use xlink:href="#f0_3" transform="matrix(57.1 0 0 57.1 808.2 383.2)"/><use xlink:href="#f0_d" transform="matrix(57.1 0 0 57.1 872.9 383.2)"/><use xlink:href="#f0_e" transform="matrix(57.1 0 0 57.1 929.4 383.2)"/><use xlink:href="#f0_8" transform="matrix(57.1 0 0 57.1 981.2 383.2)"/><use xlink:href="#f0_2" transform="matrix(57.1 0 0 57.1 1034.5 383.2)"/><use xlink:href="#f0_a" transform="matrix(57.1 0 0 57.1 1086.3 383.2)"/><use xlink:href="#f0_e" transform="matrix(57.1 0 0 57.1 1154.2 383.2)"/></g><text x="740" y="383" dx="0,0,0,0,-6.5,-6.5,-1.6,0" class="s1_1">ОПЕРАТОР</text><path d="M29.9 801.8h688.2V306H29.9v495.8z" fill="#c6d330"/><path d="M234 495.4l-53.8-13.1c-9.1-2.1-23.4-5.8-23.4-23.1 0-19.8 21-26.4 38.6-26.4 40.1 0 43.8 23.4 45 33.4h25.5v41.1c-9.3-5.5-20.4-9-31.9-11.9m-29.2 131.5c11.5 0 39.9-2 61.1-17.5v11.7h42.9v-51.6l17.9-18.5 38.9 70.1h51.3L358 520.9l57.4-63.2h-52.6l-54 62V400.6h-42.9v18.8c-13-14-34.2-24.6-67.1-24.6-71.4 0-84.8 43.4-84.8 67.7 0 33.4 17.9 52 49.2 59.6l44.4 10.9c23.4 5.8 40.1 10.1 40.1 27.4 0 23.1-24.4 28.5-46.2 28.5-40.1 0-46.8-23.4-46.8-35.8h-44.1c0 27.3 14 73.8 94.2 73.8zm-47.2 32.9c-1.2-4.4-3.6-13-16.2-13-7.3 0-18.3 5.3-18.3 25.9 0 13 5.5 25.2 18.3 25.2 8.5 0 14.4-5.1 16.2-14.1h15.2c-3 15.9-13.3 26.9-31.6 26.9-19.4 0-33.3-13.1-33.3-38.2 0-25.6 14.7-38.5 33.5-38.5 21.8 0 30.6 15 31.4 25.8zm33.8 15.5l17.9-20.5h17.4l-19 20.9 19.5 33.1h-17l-12.9-23.2-5.9 6.2v17h-14.2v-54h14.2z" class="g3_1"/><path d="M238.5 681.7c0 6.9 2.1 16.6 13 16.6 11 0 13-9.6 13-16.5s-2-16.5-13-16.5c-10.9 0-13 9.5-13 16.4m40.6 0c0 19.5-13.1 28.6-27.6 28.6-14.4 0-27.6-9-27.6-28.5s13.2-28.4 27.6-28.4c14.5 0 27.6 8.8 27.6 28.3zm53.2-26.9v54h-14.1v-42.7H303v16.7c0 20.7-6.2 27.2-16.2 27.2-2.5 0-6.5-.4-8.6-1.2v-10.5c.3.2 2.1.4 4.2.4 4.2 0 6.4-2.1 6.4-18.6v-25.3zm21.5 20.5l17.8-20.5H389l-19 20.9 19.5 33.1h-17l-12.8-23.2-5.9 6.2v17h-14.2v-54h14.2z" class="g3_1"/><path d="M400.8 681.7c0 6.9 2.1 16.6 13.1 16.6 10.9 0 12.9-9.6 12.9-16.5s-2-16.5-12.9-16.5c-11 0-13.1 9.5-13.1 16.4m40.6 0c0 19.5-13.1 28.6-27.5 28.6-14.5 0-27.7-9-27.7-28.5s13.2-28.4 27.7-28.4c14.4 0 27.5 8.8 27.5 28.3zm18.7 17.4h10.5c5.2 0 8.4-1.6 8.4-6.9 0-4.8-3.4-6.9-8.6-6.9h-10.3zm0-22.4h9.3c4.7 0 8-1.9 8-6.2 0-4.4-3.2-6-7.9-6h-9.4zM446 654.8h24.4c12.1 0 20.9 4.9 20.9 13.9 0 6.3-4.4 10.3-10.1 11.7 5.6 1.3 11.7 4.9 11.7 13.7 0 10-7.6 14.7-19.8 14.7H446zm63.1 26.9c0 6.9 2.1 16.6 13 16.6 11 0 13-9.6 13-16.5s-2-16.5-13-16.5c-10.9 0-13 9.5-13 16.4m40.6 0c0 19.5-13.1 28.6-27.6 28.6-14.4 0-27.6-9-27.6-28.5s13.2-28.4 27.6-28.4c14.5 0 27.6 8.8 27.6 28.3z" class="g3_1"/><defs><path d="M556.1 579c107 0 186.4 35.2 186.4 155.9 0 116.1-79.4 157.3-184.9 157.3H343.8V579zM106.9 0v1087.8H576c235.3 0 398.7-110 398.7-349.9 0-236.8-168-346.8-386.5-346.8H343.8V0z" id="f0_e" transform="scale(.001 -.001)"/><path d="M105.4 0v1087.8h815.9V892.2H342.2V655.4h531.7V467.5H342.2V200.1h589.7V0z" id="f0_d" transform="scale(.001 -.001)"/><path d="M105.4 0v1087.8h757.8V884.6H343.8V0z" id="f0_c" transform="scale(.001 -.001)"/><path d="M105.4 0v1087.8h238.4V334.6h4.5l409.5 753.2h268.9V0H788.3v754.7h-4.5L374.3 0z" id="f0_b" transform="scale(.001 -.001)"/><path d="M597.4 171.1c180.2 0 291.8 143.6 291.8 375.8 0 229.2-113.1 371.3-294.9 371.3-180.3 0-294.9-145.1-294.9-371.3 0-233.7 113.1-374.3 298-375.8zm-1.6-197c-322.3 0-537.7 227.6-537.7 568.3 0 345.2 213.8 571.4 539.3 571.4 317.7 0 533.2-230.7 533.2-571.4 0-339.2-215.5-568.3-534.8-568.3z" id="f0_a" transform="scale(.001 -.001)"/><path d="M105.4 0v1087.8h238.4V678.3h444.5v409.5h238.4V0H788.3v469H343.8V0z" id="f0_9" transform="scale(.001 -.001)"/><path d="M666.1 417.1L522.5 821.9 377.4 417.1zM-13.7 0l414 1089.3h246L1060.3 0H809.7l-85.5 242.9H319.3L230.7 0z" id="f0_8" transform="scale(.001 -.001)"/><path d="M154.3-21.3C111.5-21.3 51.9-13.7 19.9-3v192.4c18.3-9.1 53.4-18.3 84-18.3 64.2 0 116.1 32.1 122.2 255.2l18.3 661.5h757.8V0H763.9v884.6H472.1l-15.3-461.4C446.1 114.6 340.7-21.3 154.3-21.3z" id="f0_7" transform="scale(.001 -.001)"/><path d="M565.3 195.6c114.6 0 184.8 41.2 184.8 157.3 0 114.6-79.4 155.9-186.3 155.9H339.2V195.6zM102.4 0v1087.8h236.8V696.7h256.6c218.5 0 386.6-110 386.6-346.8C982.4 110 818.9 0 583.6 0z" id="f0_6" transform="scale(.001 -.001)"/><path d="M510.3 195.6c114.6 0 184.8 41.2 184.8 157.3 0 114.6-79.4 155.9-186.3 155.9H342.2V195.6zM105.4 0v1087.8h236.8V696.7h198.6c218.5 0 386.6-110 386.6-346.8C927.4 110 763.9 0 528.6 0zm938.1 0v1087.8h238.3V0z" id="f0_5" transform="scale(.001 -.001)"/><path d="M105.4 0v1087.8h238.4V334.6h4.5l409.5 753.2h268.9V0H788.3v754.7h-4.5L374.3 0zm461.4 1161.1c-148.2 0-249 62.7-249 220h85.5c13.8-70.3 81-100.8 163.5-100.8s149.7 30.5 163.5 100.8h85.5c0-157.3-100.8-220-249-220z" id="f0_4" transform="scale(.001 -.001)"/><path d="M105.4 0v1087.8h921.3V0H788.3v884.6H343.8V0z" id="f0_3" transform="scale(.001 -.001)"/><path d="M346.8 0v884.6H19.9v203.2h893.7V884.6H586.7V0z" id="f0_2" transform="scale(.001 -.001)"/></defs><style>@font-face{font-family:HelveticaNeueCyr-Bold_7;src:url(fonts/HelveticaNeueCyr-Bold_7.woff) format(&quot;woff&quot;)}</style></svg>